<?xml version="1.0" encoding="utf-8"?>
<!-- Uploaded to: SVG Repo, www.svgrepo.com, Generator: SVG Repo Mixer Tools -->
<svg width="800px" height="800px" viewBox="0 0 1024 1024" fill="#000000" class="icon" version="1.1"
    xmlns="http://www.w3.org/2000/svg">
    <path
        d="M574.4 590.4l-3.2 7.2 1.6 8L608 740.8l8 33.6 28-20L760 672l5.6-4 2.4-6.4 220-556.8 8.8-22.4-22.4-8.8-140-55.2-21.6-8-8.8 20.8-229.6 559.2z m244-528l140 55.2-13.6-30.4-220 556.8 8-10.4-116 82.4 36 13.6-33.6-135.2-0.8 15.2 229.6-560-29.6 12.8z"
        fill="" />
    <path
        d="M930.4 965.6H80c-31.2 0-56-24.8-56-56V290.4c0-31.2 24.8-56 56-56h576c13.6 0 24 10.4 24 24s-10.4 24-24 24H80c-4 0-8 4-8 8v619.2c0 4 4 8 8 8h850.4c4 0 8-4 8-8V320c0-13.6 10.4-24 24-24s24 10.4 24 24v589.6c0 31.2-24.8 56-56 56z"
        fill="" />
    <path
        d="M366.4 490.4H201.6c-13.6 0-25.6-11.2-25.6-25.6 0-13.6 11.2-25.6 25.6-25.6h165.6c13.6 0 25.6 11.2 25.6 25.6-0.8 14.4-12 25.6-26.4 25.6zM409.6 584h-208c-13.6 0-25.6-11.2-25.6-25.6 0-13.6 11.2-25.6 25.6-25.6h208c13.6 0 25.6 11.2 25.6 25.6-0.8 14.4-12 25.6-25.6 25.6zM441.6 676.8h-240c-13.6 0-25.6-11.2-25.6-25.6 0-13.6 11.2-25.6 25.6-25.6h240c13.6 0 25.6 11.2 25.6 25.6-0.8 14.4-12 25.6-25.6 25.6z"
        fill="" />
</svg>